<svg width="51" height="50" viewBox="0 0 51 50" fill="none" xmlns="http://www.w3.org/2000/svg">
<path fill-rule="evenodd" clip-rule="evenodd" d="M22.8927 0.0901664C14.5645 0.729025 7.35439 4.61762 3.51798 10.5393C2.52132 12.0776 1.89203 13.5318 1.41851 15.391C1.12187 16.5558 1.11032 17.2639 1.37648 17.9751L1.57763 18.513L1.36622 19.138C1.19852 19.6336 1.1632 19.9275 1.19556 20.5567C1.26175 21.8428 1.87072 22.8961 2.9756 23.6357L3.34554 23.8833V26.5232L2.78205 26.7899C1.93691 27.1902 0.974779 28.1491 0.551866 29.0131C-0.368639 30.8934 -0.120041 33.1643 1.16636 34.6257L1.55889 35.0717L1.36711 35.6882C1.00477 36.8523 1.17455 38.1026 1.82297 39.0452L2.16174 39.5377V41.6159C2.16174 44.1438 2.27696 44.8261 2.92815 46.152C3.95115 48.2352 5.96066 49.6249 8.34484 49.8981C9.5314 50.034 40.9604 50.034 42.1469 49.8981C43.8389 49.7042 45.1321 49.0714 46.3603 47.8365C46.9508 47.2427 47.1979 46.8967 47.5636 46.152C48.2003 44.8555 48.33 44.1243 48.33 41.8327V39.9715L48.5901 39.7323C49.736 38.6783 50.1249 36.7646 49.4796 35.355L49.2159 34.7791L49.4689 34.4474C50.6009 32.9634 50.7973 30.7418 49.9485 29.0239C49.5158 28.1483 48.5562 27.1908 47.7097 26.7899L47.1462 26.5232L47.1467 24.1037L47.6834 23.8233C48.37 23.4645 49.155 22.6342 49.4932 21.909C49.7244 21.413 49.758 21.2169 49.7592 20.3532C49.7604 19.4313 49.7384 19.3201 49.4317 18.6968C49.1435 18.1111 49.1161 17.9905 49.2097 17.7219C49.4616 16.9991 49.2084 15.4685 48.5312 13.6206C46.7897 8.86895 42.2308 4.49924 36.64 2.22308C32.3027 0.457343 27.6059 -0.271387 22.8927 0.0901664ZM27.4211 2.05863C37.2376 2.81291 45.2638 8.39483 47.149 15.7787C47.3826 16.6935 47.3926 17.0638 47.1939 17.4481C46.8658 18.0825 48.5715 18.0367 25.2459 18.0367C1.92024 18.0367 3.626 18.0825 3.29789 17.4481C3.09921 17.0638 3.10917 16.6935 3.34278 15.7787C4.33589 11.8889 7.08645 8.38319 11.1575 5.81839C15.6532 2.98614 21.5999 1.61135 27.4211 2.05863ZM24.1298 3.97067C23.4439 4.60627 23.8844 5.66213 24.8242 5.63549C25.2591 5.62316 25.7391 5.16463 25.7391 4.76184C25.7391 4.43472 25.4906 3.96209 25.2513 3.83404C24.9131 3.65302 24.4058 3.71487 24.1298 3.97067ZM28.8466 4.41756C28.2301 4.6699 28.0516 5.49787 28.514 5.96025C28.7215 6.16771 29.0153 6.26626 30.0978 6.49168C35.8797 7.69521 40.3882 10.7025 42.4655 14.7409C43.0063 15.7924 43.1805 15.966 43.6908 15.9629C44.2113 15.9596 44.68 15.498 44.68 14.9888C44.68 14.6496 43.6254 12.7056 42.9574 11.8136C42.1018 10.6709 40.3052 8.96829 39.0439 8.1048C36.5453 6.39431 33.6937 5.2109 30.5244 4.56918C29.2132 4.30371 29.1408 4.2972 28.8466 4.41756ZM15.0557 8.82238C14.5379 9.10314 14.433 9.86048 14.8538 10.2812C15.3252 10.7528 15.9246 10.7242 16.3071 10.2119C16.6182 9.79508 16.5707 9.29018 16.1882 8.94836C15.8332 8.6311 15.4808 8.59194 15.0557 8.82238ZM22.5615 8.95083C22.3005 9.18394 22.2415 9.31021 22.2415 9.63576C22.2415 10.6143 23.5013 10.9839 23.9939 10.1499C24.2889 9.65065 24.1382 9.05638 23.6532 8.80552C23.2404 8.59204 22.9144 8.63544 22.5615 8.95083ZM10.3822 12.4588C9.47704 12.8525 9.80002 14.288 10.7936 14.288C11.2943 14.288 11.7308 13.852 11.7308 13.3519C11.7308 12.8658 11.5814 12.6209 11.1835 12.4546C10.7823 12.287 10.7771 12.287 10.3822 12.4588ZM20.2472 12.4588C19.3421 12.8525 19.665 14.288 20.6586 14.288C21.1593 14.288 21.5958 13.852 21.5958 13.3519C21.5958 12.8658 21.4465 12.6209 21.0485 12.4546C20.6473 12.287 20.6421 12.287 20.2472 12.4588ZM27.1318 13.1664C26.8356 13.3738 26.6306 13.8682 26.697 14.2151C26.7618 14.5545 27.2514 14.9786 27.5782 14.9786C28.1232 14.9786 28.5943 14.5312 28.5978 14.0102C28.6007 13.5808 28.4613 13.3368 28.1087 13.1545C27.7361 12.9618 27.4183 12.9657 27.1318 13.1664ZM47.8299 20.3335C47.8336 20.5387 47.7681 20.871 47.6841 21.072C47.2045 22.2198 46.0023 22.5976 44.4333 22.0937C43.9206 21.9289 43.5068 21.8719 42.8259 21.8722C41.4522 21.8727 40.8123 22.0968 39.3088 23.1034C38.4759 23.661 37.8973 23.8571 37.0839 23.8571C36.2965 23.8571 35.6733 23.6553 34.9733 23.1736C33.5069 22.1647 32.69 21.8734 31.3195 21.8706C29.9527 21.8678 29.1448 22.1325 27.8601 23.0038C26.9777 23.6024 26.297 23.852 25.5418 23.8542C24.6497 23.8567 24.2355 23.719 23.2961 23.1077C21.7271 22.0867 21.075 21.866 19.6435 21.8713C18.3767 21.8761 17.6637 22.1032 16.466 22.8836C15.2566 23.6718 14.7683 23.8571 13.9011 23.8571C13.084 23.8571 12.5036 23.6593 11.6763 23.0987C10.835 22.5289 9.98095 22.1071 9.41509 21.9819C8.5451 21.7894 7.33742 21.8509 6.35437 22.1378C5.36915 22.4254 4.88596 22.4149 4.25776 22.0928C3.54422 21.7269 3.14824 21.0871 3.14824 20.3C3.14824 19.8491 3.16787 19.8009 3.32088 19.8758C3.41578 19.9223 13.2155 19.9697 25.0979 19.9811C45.2538 20.0003 46.7353 19.9905 47.1955 19.8331C47.7624 19.6393 47.8177 19.6829 47.8299 20.3335ZM21.179 24.1417C21.4084 24.2587 21.9308 24.573 22.34 24.8401C23.3835 25.5213 24.0227 25.74 25.1472 25.8006C26.6089 25.8793 27.5128 25.6145 28.83 24.7219C29.8395 24.0378 30.3785 23.8413 31.2401 23.8432C32.2015 23.8451 32.6383 24.0008 33.8067 24.7577C34.9624 25.5064 35.6118 25.7408 36.7106 25.806C38.1738 25.8929 39.134 25.5988 40.5688 24.6245C41.7603 23.8152 42.8279 23.6427 44.1384 24.0476C44.502 24.1598 44.8835 24.2517 44.9863 24.2517C45.1573 24.2517 45.1732 24.3357 45.1732 25.2382V26.2247H5.31854V24.3677L5.73781 24.3013C5.96845 24.2648 6.43921 24.1499 6.78399 24.046C7.54537 23.8166 8.68074 23.7991 9.27165 24.0076C9.50634 24.0904 10.1148 24.428 10.624 24.7577C11.7796 25.5064 12.4291 25.7408 13.5278 25.806C14.9864 25.8926 15.9521 25.5981 17.3718 24.6341C17.6932 24.4158 18.1203 24.1681 18.3209 24.0837C19.142 23.738 20.4393 23.7643 21.179 24.1417ZM10.7651 31.0316C13.5407 33.8012 13.6142 33.8656 14.0008 33.8656C14.3794 33.8656 14.4614 33.8007 15.9009 32.3634C16.7284 31.5372 17.449 30.8612 17.502 30.8612C17.6168 30.8612 21.1026 34.3259 21.1026 34.44C21.1026 34.4833 17.3403 34.5052 12.742 34.4888C3.34909 34.4553 3.90725 34.4998 3.01131 33.7111C1.15748 32.0795 1.93642 28.8453 4.3057 28.3364C4.61862 28.2692 5.56093 28.2105 6.39975 28.206L7.92488 28.1977L10.7651 31.0316ZM16.1171 29.384L13.9996 31.5015L10.6957 28.1977H14.9432L16.1171 29.384ZM29.6851 32.193C27.4882 34.3904 25.6898 36.1883 25.6898 36.1883C25.6898 36.1883 23.8914 34.3904 21.6945 32.193L17.7 28.1977H33.6796L29.6851 32.193ZM46.0337 28.3074C47.5878 28.578 48.6452 30.003 48.494 31.6226C48.3519 33.1434 47.3961 34.1704 45.8937 34.4164C45.3047 34.5129 30.277 34.5542 30.277 34.4594C30.277 34.4308 31.6866 33.012 33.4092 31.3064L36.5413 28.2054L40.9725 28.2015C43.7989 28.1991 45.6318 28.2374 46.0337 28.3074ZM47.7406 36.2441C48.0273 36.9981 47.6964 37.9612 46.9698 38.4875C46.4025 38.8985 45.5753 38.9629 44.6111 38.6713C42.7185 38.0989 41.1943 38.3613 39.419 39.5651C38.4448 40.2257 38.029 40.3688 37.0839 40.3688C36.1317 40.3688 35.7234 40.2263 34.7171 39.5429C33.2811 38.5679 31.952 38.2182 30.491 38.4311C29.548 38.5685 28.9251 38.8369 27.7405 39.6161C26.9751 40.1196 26.7213 40.2325 26.1312 40.332C25.0173 40.52 24.3873 40.3569 23.1491 39.5602C21.9575 38.7936 21.1467 38.4751 20.177 38.3932C18.8171 38.2782 17.604 38.6357 16.2633 39.5461C15.2619 40.2262 14.8523 40.3688 13.9011 40.3688C12.956 40.3688 12.5402 40.2257 11.5661 39.5651C9.80456 38.3707 8.25132 38.0975 6.418 38.6596C4.66331 39.1977 3.26711 38.4843 3.17488 37.0027C3.12644 36.2238 3.20852 36.1232 3.75494 36.2914C4.09745 36.3969 6.10518 36.4303 13.7038 36.4573L23.2235 36.491L24.2101 37.472C25.6434 38.8973 25.7672 38.8935 27.2661 37.3792L28.1519 36.4843L36.7366 36.4812C45.1585 36.4783 46.3025 36.4424 47.0969 36.1562C47.6393 35.9609 47.6325 35.9599 47.7406 36.2441ZM8.98439 40.4661C9.3491 40.5519 9.83524 40.7922 10.3864 41.1589C11.8883 42.1583 12.9719 42.4892 14.3355 42.3651C15.371 42.2708 16.1351 41.9765 17.2958 41.2251C18.1264 40.6874 18.4633 40.5281 18.9731 40.4319C20.094 40.2204 20.9283 40.4312 22.0883 41.219C24.3936 42.7845 26.5914 42.7845 28.8967 41.219C30.069 40.4229 30.8741 40.2172 31.9922 40.4282C32.4912 40.5223 32.8338 40.68 33.5507 41.1453C35.2473 42.2465 36.2786 42.534 37.8 42.3299C38.8011 42.1955 39.3398 41.9714 40.5118 41.2012C41.8946 40.2927 42.678 40.1562 44.0881 40.5783C44.6414 40.7439 45.1493 40.8249 45.6345 40.8249H46.357V42.2346C46.357 43.1648 46.3071 43.8361 46.2101 44.2083C45.7608 45.9333 44.4739 47.2701 42.7563 47.7958C42.1917 47.9686 41.3823 47.977 25.2459 47.977C9.10947 47.977 8.30005 47.9686 7.73547 47.7958C6.01787 47.2701 4.73098 45.9333 4.28163 44.2083C4.18338 43.831 4.13474 43.158 4.13474 42.1745V40.7048L4.39567 40.7703C4.96528 40.9133 6.05842 40.8322 6.84762 40.5884C7.75619 40.3078 8.20298 40.2822 8.98439 40.4661Z" fill="#191411"/>
</svg>
